<svg width="43" height="48" viewBox="0 0 43 48" fill="none" xmlns="http://www.w3.org/2000/svg">
<g clip-path="url(#clip0_4_572)">
<path fill-rule="evenodd" clip-rule="evenodd" d="M21.2342 0L1.159 11.5942L21.2342 23.1884L41.3094 11.5942L21.2342 0ZM21.722 13.0708C21.9454 13.1099 22.1487 13.1803 22.3137 13.2756L24.0259 14.2645C24.5283 14.5547 25.3429 14.5547 25.8452 14.2645C26.3477 13.9744 26.3477 13.5039 25.8452 13.2138L24.1371 12.2272C23.9694 12.1304 23.8465 12.0109 23.7794 11.8795L21.6384 7.6882C21.343 7.11008 20.0842 6.92502 19.3462 7.35122C18.9738 7.56634 18.8467 7.8854 19.019 8.17287L20.9296 11.3606L15.3619 10.2812C14.8625 10.1844 14.3111 10.2592 13.9385 10.4744C13.1971 10.9026 13.5138 11.6328 14.5172 11.8086L21.722 13.0708Z" fill="white"/>
<path fill-rule="evenodd" clip-rule="evenodd" d="M42.5604 13.2173L22.4852 24.8115V47.9999L42.5604 36.4057V13.2173ZM34.0409 24.8478C33.514 24.8525 32.87 25.0748 32.1087 25.5144L30.3145 26.5506C29.7601 26.8707 29.3108 27.6494 29.3108 28.2897V36.7463C29.3108 37.3266 29.7181 37.5617 30.2204 37.2717C30.7228 36.9815 31.13 36.2758 31.13 35.6955V34.5289C31.13 33.8886 31.5795 33.1099 32.1339 32.7898L32.435 32.6159C33.0372 32.2681 33.5433 31.8695 33.9531 31.4202C34.3714 30.9564 34.7018 30.4757 34.9443 29.9782C35.1952 29.4757 35.3751 28.9758 35.4838 28.4782C35.601 27.966 35.6595 27.4926 35.6595 27.0579C35.6595 26.3236 35.5215 25.7704 35.2454 25.3985C34.9695 25.0168 34.568 24.8333 34.0409 24.8478ZM33.1124 30.0217C32.9285 30.2342 32.6984 30.4202 32.4225 30.5796L32.1339 30.7463C31.5795 31.0664 31.13 30.8068 31.13 30.1666V29.2681C31.13 28.6277 31.5795 27.8491 32.1339 27.5289L32.435 27.355C32.7528 27.1714 33.0037 27.0893 33.1878 27.1086C33.3802 27.1231 33.5224 27.1956 33.6144 27.326C33.7063 27.4565 33.765 27.6062 33.79 27.7753C33.8235 27.9299 33.8402 28.0603 33.8402 28.1666C33.8402 28.3018 33.8152 28.4757 33.765 28.6884C33.7231 28.896 33.6478 29.1183 33.5391 29.355C33.4387 29.5772 33.2965 29.7994 33.1124 30.0217Z" fill="white"/>
<path fill-rule="evenodd" clip-rule="evenodd" d="M20.4227 24.8115L0.347474 13.2173L0.347473 36.4057L20.4227 47.9999V24.8115ZM5.53425 23.4013C4.97002 23.0754 4.58174 23.5056 4.78535 24.231L7.39601 33.5322C7.6514 34.4421 8.57388 35.0106 8.87278 34.4421L10.6008 31.1563C10.6138 31.1316 10.6251 31.1052 10.6348 31.0773L12.0586 36.0002C12.3317 36.9449 13.3004 37.4903 13.5564 36.8436L15.9919 30.6921C16.1872 30.1989 15.7993 29.3296 15.2393 29.0064L15.0326 28.8868C14.6792 28.6828 14.3674 28.7695 14.2643 29.1004L12.8752 33.5634L11.0022 27.1387C10.8795 26.7176 10.5851 26.3183 10.2579 26.1294L10.1796 26.0841C9.61117 25.7558 9.22271 26.1949 9.43428 26.9265L10.193 29.5497C9.80436 29.1027 9.2757 28.9534 9.0842 29.3934L8.31004 31.1721L6.68059 24.6924C6.56994 24.2524 6.26419 23.8228 5.92028 23.6242L5.53425 23.4013Z" fill="white"/>
</g>
<defs>
<clipPath id="clip0_4_572">
<rect x="0.347473" width="42.3051" height="48" fill="white"/>
</clipPath>
</defs>
</svg>
